<?xml version="1.0" encoding="UTF-8"?>
<svg id="Layer_1" data-name="Layer 1" xmlns="http://www.w3.org/2000/svg" viewBox="0 0 409.68 501.66">
  <defs>
    <style>
      .cls-1 {
        fill: #14a0de;
      }

      .cls-1, .cls-2, .cls-3, .cls-4 {
        stroke-width: 0px;
      }

      .cls-2 {
        fill: #3d4689;
      }

      .cls-3 {
        fill: #fff;
      }

      .cls-4 {
        fill: #203a72;
      }
    </style>
  </defs>
  <circle class="cls-3" cx="204.84" cy="204.66" r="146"/>
  <g>
    <path class="cls-2" d="M135.92,417.17l65.31,82.74c1.84,2.33,5.38,2.33,7.23,0l65.31-82.74c-21.75,6.88-44.9,10.61-68.92,10.61s-47.17-3.72-68.92-10.61Z"/>
    <path class="cls-2" d="M204.84,0C91.71,0,0,91.71,0,204.84c0,113.46,91.38,204.84,204.84,204.84,113.13,0,204.84-91.71,204.84-204.84S318.31,0,204.84,0ZM204.95,350.36c-80.45.06-145.68-65.17-145.63-145.63.06-79.1,66.31-145.36,145.42-145.42,80.45-.06,145.68,65.17,145.63,145.63-.06,79.1-66.31,145.36-145.42,145.42Z"/>
  </g>
  <g>
    <path class="cls-4" d="M222.91,133.67h-45.21c-1.51,0-2.95.57-4.02,1.64l-41.52,40.58h53.69l37.07-42.23Z"/>
    <path class="cls-4" d="M191.58,229.57c3.15.64,6.2,1.71,9.12,3.15,2.65,1.31,5.8,1.31,8.45,0,5.63-2.78,11.83-4.12,18-4.09v-22.39c0-2.21,1.81-3.99,4.02-3.99h13c2.25,0,4.02,1.78,4.02,3.99v27.41c1.54.07,3.12-.23,4.52-.94,9.69-4.79,20.98-5.36,31.03-1.71v-44.61c0-1.17-.4-2.31-1.17-3.18l-42.56-48.53c-1.24-1.37-3.38-1.37-4.62,0l-43.8,49.9v44.97ZM237.69,165.66c4.19,0,7.64,3.49,7.64,7.71s-3.45,7.71-7.64,7.71-7.67-3.49-7.67-7.71,3.42-7.71,7.67-7.71Z"/>
    <path class="cls-4" d="M157.16,232.72c2.65,1.31,5.8,1.27,8.41,0,5.03-2.48,10.49-3.82,15.95-4.05v-42.69h-55.43v45.04c10.05-3.65,21.38-3.08,31.07,1.71ZM144.5,204.43c0-1.21.97-2.18,2.18-2.18h13.04c1.21,0,2.18.97,2.18,2.18v15.25c0,1.21-.97,2.18-2.18,2.18h-13.04c-1.21,0-2.18-.97-2.18-2.18v-15.25Z"/>
    <path class="cls-1" d="M93.82,245.37l10.89,5.37c8.21,4.05,18.02,4.04,26.22,0,5.42-2.67,11.9-2.68,17.33,0,4.1,2.02,8.61,3.03,13.11,3.03s9-1.01,13.11-3.03c5.43-2.68,11.91-2.68,17.33,0,8.22,4.05,18.02,4.04,26.22,0,5.43-2.68,11.91-2.68,17.33,0,8.21,4.04,18.01,4.04,26.22,0,5.43-2.68,11.91-2.68,17.33,0,8.2,4.04,18.01,4.05,26.22,0l10.89-5.37c2.49-1.23,3.51-4.24,2.29-6.73-1.23-2.49-4.24-3.52-6.73-2.29l-10.89,5.37c-5.43,2.67-11.91,2.67-17.33,0-8.21-4.05-18.01-4.05-26.22,0-5.43,2.67-11.91,2.67-17.33,0-8.2-4.05-18.01-4.05-26.22,0-5.42,2.68-11.9,2.67-17.33,0-8.2-4.05-18.01-4.05-26.22,0-5.43,2.67-11.91,2.67-17.33,0-8.2-4.04-18-4.05-26.22,0-5.43,2.67-11.91,2.67-17.33,0l-10.89-5.37c-2.48-1.23-5.5-.21-6.73,2.29-1.23,2.49-.2,5.5,2.29,6.73Z"/>
    <path class="cls-1" d="M311.58,257.39l-10.89,5.37c-5.43,2.68-11.91,2.67-17.33,0-8.21-4.04-18.01-4.04-26.22,0-5.43,2.68-11.91,2.68-17.33,0-8.21-4.05-18.01-4.04-26.22,0-5.42,2.67-11.9,2.68-17.33,0-8.21-4.05-18.02-4.04-26.22,0-5.43,2.67-11.91,2.67-17.33,0-8.22-4.05-18.02-4.04-26.22,0-5.43,2.68-11.91,2.67-17.33,0l-10.89-5.37c-2.48-1.22-5.5-.2-6.73,2.29-1.23,2.49-.2,5.5,2.29,6.73l10.89,5.36c8.21,4.05,18.01,4.05,26.22,0,5.42-2.68,11.9-2.67,17.33,0,4.1,2.02,8.61,3.04,13.11,3.04,4.5,0,9-1.01,13.11-3.04,5.43-2.68,11.91-2.67,17.33,0,8.21,4.04,18.01,4.05,26.22,0,5.43-2.68,11.91-2.67,17.33,0,8.21,4.05,18.01,4.05,26.22,0,5.43-2.68,11.91-2.67,17.33,0,8.2,4.05,18.01,4.05,26.22,0l10.89-5.37c2.49-1.23,3.51-4.24,2.29-6.73-1.23-2.49-4.24-3.51-6.73-2.29Z"/>
  </g>
</svg>