<?xml version="1.0" encoding="UTF-8"?>
<svg id="Layer_1" data-name="Layer 1" xmlns="http://www.w3.org/2000/svg" viewBox="0 0 409.68 501.66">
  <defs>
    <style>
      .cls-1 {
        fill: #c1272d;
      }

      .cls-1, .cls-2, .cls-3 {
        stroke-width: 0px;
      }

      .cls-2 {
        fill: #fff;
      }

      .cls-3 {
        fill: #4d4d4d;
      }
    </style>
  </defs>
  <circle class="cls-2" cx="204.84" cy="204.66" r="146"/>
  <g>
    <path class="cls-1" d="M135.92,417.17l65.31,82.74c1.84,2.33,5.38,2.33,7.23,0l65.31-82.74c-21.75,6.88-44.9,10.61-68.92,10.61s-47.17-3.72-68.92-10.61Z"/>
    <path class="cls-1" d="M204.84,0C91.71,0,0,91.71,0,204.84c0,113.46,91.38,204.84,204.84,204.84,113.13,0,204.84-91.71,204.84-204.84S318.31,0,204.84,0ZM204.95,350.36c-80.45.06-145.68-65.17-145.63-145.63.06-79.1,66.31-145.36,145.42-145.42,80.45-.06,145.68,65.17,145.63,145.63-.06,79.1-66.31,145.36-145.42,145.42Z"/>
  </g>
  <path class="cls-3" d="M266.54,305.66h-127.78c-2.52,0-4.56-2.04-4.56-4.56v-18.25c0-2.52,2.04-4.56,4.56-4.56h127.78c2.51,0,4.56,2.04,4.56,4.56v18.25c0,2.52-2.04,4.56-4.56,4.56ZM143.33,296.53h118.65v-9.13h-118.65v9.13Z"/>
  <path class="cls-3" d="M230.04,287.41h-54.76c-2.52,0-4.56-2.04-4.56-4.56v-109.53c0-2.52,2.04-4.56,4.56-4.56h54.76c2.52,0,4.56,2.04,4.56,4.56v109.53c0,2.52-2.04,4.56-4.56,4.56ZM179.84,278.28h45.64v-100.4h-45.64v100.4Z"/>
  <path class="cls-3" d="M248.29,177.88h-91.27c-2.52,0-4.56-2.04-4.56-4.56v-20.54c0-26.97,22.05-48.11,50.2-48.11s50.2,21.3,50.2,48.49v20.16c0,2.51-2.04,4.55-4.56,4.55ZM161.58,168.75h82.14v-15.6c0-22.07-18.05-39.37-41.07-39.37s-41.07,17.13-41.07,38.98v15.98Z"/>
  <path class="cls-3" d="M221.67,113.79c-2.51,0-4.56-2.04-4.56-4.56,0-7.97-6.48-14.44-14.45-14.44s-14.45,6.47-14.45,14.44c0,2.52-2.04,4.56-4.56,4.56s-4.56-2.04-4.56-4.56c0-13,10.58-23.57,23.58-23.57s23.58,10.57,23.58,23.57c0,2.54-2.05,4.56-4.56,4.56Z"/>
  <path class="cls-3" d="M257.04,241.96v-9.13c7.97,0,14.45-6.51,14.45-14.46s-6.48-14.44-14.45-14.44v-9.13c13,0,23.58,10.55,23.58,23.57s-10.59,23.58-23.58,23.58Z"/>
  <path class="cls-3" d="M257.42,250.9h-27.38c-2.52,0-4.56-2.04-4.56-4.56v-54.76c0-2.52,2.04-4.56,4.56-4.56h27.38c2.51,0,4.56,2.04,4.56,4.56v54.76c0,2.52-2.04,4.56-4.56,4.56ZM234.6,241.77h18.25v-45.64h-18.25v45.64Z"/>
  <path class="cls-3" d="M148.66,241.96c-13,0-23.58-10.58-23.58-23.58s10.58-23.57,23.58-23.57v9.13c-7.97,0-14.45,6.47-14.45,14.44s6.48,14.46,14.45,14.46c0,0,0,9.13,0,9.13Z"/>
  <path class="cls-3" d="M175.27,250.9h-27.38c-2.52,0-4.56-2.04-4.56-4.56v-54.76c0-2.52,2.04-4.56,4.56-4.56h27.38c2.52,0,4.56,2.04,4.56,4.56v54.76c0,2.52-2.04,4.56-4.56,4.56ZM152.45,241.77h18.25v-45.64h-18.25v45.64Z"/>
</svg>