<?xml version="1.0" encoding="UTF-8"?>
<svg id="Layer_1" data-name="Layer 1" xmlns="http://www.w3.org/2000/svg" viewBox="0 0 409.68 501.66">
  <defs>
    <style>
      .cls-1 {
        fill: #662d91;
      }

      .cls-1, .cls-2, .cls-3 {
        stroke-width: 0px;
      }

      .cls-2 {
        fill: #534741;
      }

      .cls-3 {
        fill: #fff;
      }
    </style>
  </defs>
  <circle class="cls-3" cx="204.84" cy="204.66" r="146"/>
  <g>
    <path class="cls-1" d="M135.92,417.17l65.31,82.74c1.84,2.33,5.38,2.33,7.23,0l65.31-82.74c-21.75,6.88-44.9,10.61-68.92,10.61s-47.17-3.72-68.92-10.61Z"/>
    <path class="cls-1" d="M204.84,0C91.71,0,0,91.71,0,204.84c0,113.46,91.38,204.84,204.84,204.84,113.13,0,204.84-91.71,204.84-204.84S318.31,0,204.84,0ZM204.95,350.36c-80.45.06-145.68-65.17-145.63-145.63.06-79.1,66.31-145.36,145.42-145.42,80.45-.06,145.68,65.17,145.63,145.63-.06,79.1-66.31,145.36-145.42,145.42Z"/>
  </g>
  <path class="cls-2" d="M239.69,244.72c1.15,0,2.1-.19,3.06-.58v43.33c0,6.13,4.97,11.12,11.08,11.12,2.86,0,5.54-1.15,7.45-3.07,1.91,1.92,4.58,3.07,7.45,3.07,6.11,0,11.08-4.99,11.08-11.12v-43.32c.95.38,2.1.58,3.06.58,5.54,0,10.12-4.6,10.12-10.16v-27.23c0-10.93-7.83-20.13-18.14-22.43,3.06-3.26,4.97-7.67,4.97-12.66,0-10.35-8.4-18.59-18.52-18.59s-18.52,8.43-18.52,18.59c0,4.79,1.91,9.2,4.97,12.66-10.31,2.11-18.14,11.31-18.14,22.43v27.22c-.01,5.56,4.57,10.16,10.11,10.16h0ZM261.27,160.76c6.49,0,11.65,5.17,11.65,11.7s-5.15,11.7-11.65,11.7-11.65-5.17-11.65-11.7,5.16-11.7,11.65-11.7ZM236.44,207.34c0-8.82,7.06-15.91,15.85-15.91h17.95c8.79,0,15.85,7.09,15.85,15.91v27.22c0,1.72-1.34,3.07-3.06,3.07s-3.06-1.34-3.06-3.07v-23.96c0-1.92-1.52-3.45-3.43-3.45s-3.44,1.54-3.44,3.45v76.88c0,2.3-1.91,4.03-4.01,4.03-2.29,0-4.01-1.92-4.01-4.03v-51c0-1.92-1.52-3.45-3.43-3.45s-3.44,1.54-3.44,3.45v50.8c0,2.3-1.91,4.03-4.01,4.03s-4.01-1.92-4.01-4.03v-76.68c0-1.92-1.52-3.45-3.43-3.45s-3.44,1.54-3.44,3.45v23.96c0,1.72-1.34,3.07-3.06,3.07-1.71,0-3.81-1.35-3.81-3.07v-27.23Z"/>
  <path class="cls-2" d="M118.28,243.35c1.15,0,2.1-.19,3.06-.58v43.33c0,6.13,4.97,11.12,11.08,11.12,2.86,0,5.54-1.15,7.45-3.07,1.91,1.92,4.58,3.07,7.45,3.07,6.11,0,11.08-4.99,11.08-11.12v-43.32c.95.38,2.1.58,3.06.58,5.54,0,10.12-4.6,10.12-10.16v-27.23c0-10.93-7.83-20.13-18.14-22.43,3.06-3.26,4.97-7.67,4.97-12.66,0-10.35-8.4-18.59-18.52-18.59s-18.52,8.43-18.52,18.59c0,4.79,1.91,9.2,4.97,12.66-10.31,2.11-18.14,11.31-18.14,22.43v27.22c-.01,5.56,4.57,10.16,10.11,10.16h0ZM139.86,159.39c6.49,0,11.65,5.17,11.65,11.7s-5.15,11.7-11.65,11.7-11.65-5.17-11.65-11.7,5.16-11.7,11.65-11.7ZM115.03,205.97c0-8.82,7.06-15.91,15.85-15.91h17.95c8.79,0,15.85,7.09,15.85,15.91v27.22c0,1.72-1.34,3.07-3.06,3.07s-3.06-1.34-3.06-3.07v-23.96c0-1.92-1.52-3.45-3.43-3.45s-3.44,1.54-3.44,3.45v76.88c0,2.3-1.91,4.03-4.01,4.03-2.29,0-4.01-1.92-4.01-4.03v-51c0-1.92-1.52-3.45-3.43-3.45s-3.44,1.54-3.44,3.45v50.8c0,2.3-1.91,4.03-4.01,4.03s-4.01-1.92-4.01-4.03v-76.68c0-1.92-1.52-3.45-3.43-3.45s-3.44,1.54-3.44,3.45v23.96c0,1.72-1.34,3.07-3.06,3.07-1.71,0-3.81-1.35-3.81-3.07v-27.23Z"/>
  <path class="cls-2" d="M183.25,184.35c1.15,0,2.1-.19,3.06-.58v43.33c0,6.13,4.97,11.12,11.08,11.12,2.86,0,5.54-1.15,7.45-3.07,1.91,1.92,4.58,3.07,7.45,3.07,6.11,0,11.08-4.99,11.08-11.12v-43.32c.95.38,2.1.58,3.06.58,5.54,0,10.12-4.6,10.12-10.16v-27.23c0-10.93-7.83-20.13-18.14-22.43,3.06-3.26,4.97-7.67,4.97-12.66,0-10.35-8.4-18.59-18.52-18.59s-18.52,8.43-18.52,18.59c0,4.79,1.91,9.2,4.97,12.66-10.31,2.11-18.14,11.31-18.14,22.43v27.22c-.01,5.56,4.57,10.16,10.11,10.16h0ZM204.83,100.39c6.49,0,11.65,5.17,11.65,11.7s-5.15,11.7-11.65,11.7-11.65-5.17-11.65-11.7,5.16-11.7,11.65-11.7ZM180.01,146.97c0-8.82,7.06-15.91,15.85-15.91h17.95c8.79,0,15.85,7.09,15.85,15.91v27.22c0,1.72-1.34,3.07-3.06,3.07s-3.06-1.34-3.06-3.07v-23.96c0-1.92-1.52-3.45-3.43-3.45s-3.44,1.54-3.44,3.45v76.88c0,2.3-1.91,4.03-4.01,4.03-2.29,0-4.01-1.92-4.01-4.03v-51c0-1.92-1.52-3.45-3.43-3.45s-3.44,1.54-3.44,3.45v50.8c0,2.3-1.91,4.03-4.01,4.03s-4.01-1.92-4.01-4.03v-76.68c0-1.92-1.52-3.45-3.43-3.45s-3.44,1.54-3.44,3.45v23.96c0,1.72-1.34,3.07-3.06,3.07-1.71,0-3.81-1.35-3.81-3.07v-27.23Z"/>
</svg>