<?xml version="1.0" encoding="UTF-8"?>
<svg id="Layer_1" data-name="Layer 1" xmlns="http://www.w3.org/2000/svg" viewBox="0 0 409.68 501.66">
  <defs>
    <style>
      .cls-1 {
        fill: #aee0f8;
      }

      .cls-1, .cls-2, .cls-3, .cls-4 {
        stroke-width: 0px;
      }

      .cls-2 {
        fill: #2e7cbc;
      }

      .cls-3 {
        fill: #fff;
      }

      .cls-4 {
        fill: #284978;
      }
    </style>
  </defs>
  <circle class="cls-3" cx="204.84" cy="204.66" r="146"/>
  <g>
    <path class="cls-2" d="M135.92,417.17l65.31,82.74c1.84,2.33,5.38,2.33,7.23,0l65.31-82.74c-21.75,6.88-44.9,10.61-68.92,10.61s-47.17-3.72-68.92-10.61Z"/>
    <path class="cls-2" d="M204.84,0C91.71,0,0,91.71,0,204.84c0,113.46,91.38,204.84,204.84,204.84,113.13,0,204.84-91.71,204.84-204.84S318.31,0,204.84,0ZM204.95,350.36c-80.45.06-145.68-65.17-145.63-145.63.06-79.1,66.31-145.36,145.42-145.42,80.45-.06,145.68,65.17,145.63,145.63-.06,79.1-66.31,145.36-145.42,145.42Z"/>
  </g>
  <g>
    <path class="cls-1" d="M205.41,263.52c15.48,0,30.41-1.31,42.04-3.69,6.08-1.25,9.96-2.52,12.3-3.46v-80.4c-15.01,3.5-34.22,5.42-54.34,5.42s-39.34-1.92-54.34-5.42v80.4c2.34.94,6.23,2.21,12.3,3.46,11.62,2.38,26.56,3.69,42.04,3.69h0Z"/>
    <path class="cls-4" d="M246.81,256.73h0c-11.33,2.32-26.1,3.63-41.41,3.63-15.3,0-30.07-1.31-41.4-3.63h0c-4.4-.91-7.56-1.81-9.78-2.57v-74.37c14.69,3.05,32.46,4.75,51.18,4.75,18.71,0,36.49-1.71,51.18-4.75v74.37c-2.22.76-5.38,1.66-9.78,2.57h0ZM259.04,172.88c-14.68,3.43-33.71,5.34-53.62,5.34s-38.94-1.91-53.62-5.34c-.93-.21-1.93,0-2.68.6-.75.6-1.2,1.51-1.2,2.47v80.4c0,1.29.79,2.45,1.98,2.93,2.55,1.03,6.61,2.34,12.84,3.63h0c11.91,2.44,27,3.76,42.67,3.76s30.76-1.32,42.67-3.76h0c6.23-1.28,10.29-2.6,12.84-3.63,1.2-.48,1.98-1.65,1.98-2.93v-80.4c0-.96-.45-1.88-1.2-2.47-.75-.6-1.75-.82-2.68-.6h0Z"/>
    <path class="cls-4" d="M213.12,235.42c-2.15,2.14-5.07,3.46-8.34,3.46s-6.2-1.32-8.34-3.46c-2.14-2.15-3.45-5.08-3.45-8.34,0-.56.15-1.56.51-2.76.62-2.11,1.81-4.84,3.23-7.65,2.14-4.23,4.82-8.68,6.95-12.05.4-.63.75-1.18,1.1-1.72,1.43,2.22,3.27,5.16,5.09,8.32,1.77,3.08,3.51,6.36,4.76,9.27.63,1.45,1.14,2.8,1.47,3.95.34,1.15.49,2.11.48,2.65,0,3.26-1.32,6.2-3.46,8.34h0ZM218.47,213.82c-2.29-4.52-5.05-9.1-7.24-12.57-2.2-3.48-3.83-5.84-3.84-5.86-.59-.85-1.57-1.36-2.6-1.36s-2.01.51-2.6,1.36c-.03.04-3.8,5.5-7.61,12.06-1.91,3.29-3.82,6.85-5.3,10.21-.74,1.68-1.37,3.32-1.83,4.88-.46,1.57-.77,3.05-.77,4.55,0,4.99,2.03,9.54,5.3,12.81,3.27,3.28,7.82,5.31,12.81,5.31s9.54-2.03,12.81-5.31c3.27-3.26,5.31-7.81,5.31-12.81,0-1.5-.32-2.98-.77-4.55-.81-2.73-2.13-5.7-3.65-8.71h0Z"/>
    <path class="cls-4" d="M124.8,275.24c.06-.21.23-.55.63-.99.58-.67,1.66-1.52,3.19-2.37,1.52-.86,3.49-1.73,5.82-2.57.11-.04.18-.12.29-.17.39.37.75.77,1.19,1.12,2.7,2.1,6.33,3.83,10.81,5.38,6.71,2.31,15.35,4.15,25.34,5.45,9.99,1.29,21.32,2.02,33.34,2.02,9.77,0,19.08-.48,27.59-1.35,6.38-.66,12.3-1.53,17.64-2.6,4-.8,7.66-1.7,10.94-2.7,4.92-1.51,8.96-3.22,12.02-5.26.87-.58,1.48-1.31,2.19-1.97.14.07.24.19.39.24,3.41,1.25,6,2.6,7.51,3.79.76.59,1.24,1.14,1.48,1.52.12.2.19.35.22.47.04.12.04.2.05.28,0,.12-.02.24-.13.48-.1.22-.3.52-.63.88-.62.68-1.71,1.52-3.24,2.36-2.68,1.49-6.65,2.99-11.59,4.33-7.41,2.02-17.02,3.71-28.06,4.88-11.03,1.18-23.51,1.84-36.7,1.84-11.44,0-22.33-.5-32.22-1.4-7.42-.67-14.27-1.57-20.35-2.65-4.56-.81-8.69-1.72-12.3-2.7-2.71-.74-5.11-1.52-7.18-2.32-3.09-1.2-5.42-2.49-6.76-3.61-.67-.55-1.09-1.05-1.31-1.41-.21-.37-.23-.54-.24-.69,0-.09,0-.17.05-.29h0ZM137.92,138.82c.15-.39.54-.99,1.31-1.68,1.14-1.05,3.09-2.25,5.69-3.38.93-.41,2.04-.8,3.14-1.2,5.13,1.7,12.23,3.39,21.41,4.7,9.78,1.39,21.81,2.33,35.95,2.33s26.17-.94,35.95-2.33c9.19-1.31,16.29-3,21.43-4.7.5.18,1.05.36,1.52.54,3.2,1.25,5.61,2.6,7.02,3.81.71.6,1.16,1.15,1.4,1.56.24.42.29.67.29.9,0,.16-.03.33-.13.57-.09.22-.26.51-.53.84-.5.63-1.39,1.41-2.65,2.2-2.21,1.4-5.52,2.84-9.66,4.12-6.22,1.94-14.32,3.57-23.64,4.7-9.32,1.13-19.86,1.77-31.01,1.77-9.66,0-18.87-.48-27.22-1.35-6.26-.65-12.04-1.52-17.17-2.55-3.84-.78-7.32-1.65-10.35-2.6-4.53-1.41-8.06-3.01-10.22-4.53-1.09-.75-1.81-1.48-2.19-2.03-.19-.28-.31-.51-.37-.69-.06-.19-.08-.32-.09-.46,0-.16.03-.32.11-.54h0ZM170.35,127.49c9.46-1.34,21.21-2.27,35.06-2.27s25.61.92,35.06,2.27c3.73.53,6.99,1.13,9.99,1.76-3,.62-6.27,1.23-9.99,1.76-9.46,1.34-21.21,2.27-35.06,2.27s-25.6-.92-35.06-2.27c-3.73-.53-6.99-1.14-9.99-1.76,3-.63,6.27-1.23,9.99-1.76h0ZM120.86,281.17c1.28,1.38,2.9,2.53,4.83,3.6,3.37,1.86,7.73,3.46,12.99,4.9,7.88,2.14,17.76,3.87,29.05,5.07,11.28,1.2,23.96,1.87,37.37,1.87,11.62,0,22.69-.5,32.79-1.42,7.57-.69,14.59-1.61,20.88-2.72,4.72-.84,9.02-1.78,12.86-2.83,2.88-.79,5.48-1.63,7.81-2.54,3.48-1.36,6.31-2.83,8.49-4.61,1.08-.9,2.01-1.88,2.71-3.04.7-1.15,1.14-2.51,1.14-3.93,0-.74-.12-1.48-.34-2.17-.39-1.21-1.05-2.28-1.86-3.21-1.23-1.4-2.79-2.56-4.66-3.64-1.65-.94-3.63-1.79-5.76-2.61.04-.11.04-.22.06-.33.02-.15.1-.29.11-.44h-.02c0-.08.05-.15.05-.23v-56.86c0-1.75-1.42-3.16-3.16-3.16s-3.16,1.41-3.16,3.16h0v56.59s-.01.02-.01.04c-.01.16-.05.35-.18.61-.22.48-.79,1.21-1.83,2.02-.9.71-2.12,1.46-3.63,2.2-2.64,1.3-6.15,2.57-10.32,3.7-6.27,1.7-14.04,3.11-22.81,4.08-8.77.98-18.54,1.52-28.83,1.52-9.56,0-18.67-.47-26.95-1.32-6.2-.64-11.94-1.49-17.04-2.51-3.82-.76-7.3-1.62-10.33-2.55-4.55-1.39-8.11-2.96-10.37-4.47-1.12-.75-1.91-1.48-2.35-2.06-.22-.29-.36-.54-.44-.74-.08-.2-.11-.35-.13-.49,0-.01,0-.02-.01-.04v-114.27c2.92,1.83,6.63,3.39,11.09,4.78,6.74,2.09,15.15,3.77,24.75,4.94,9.6,1.17,20.37,1.82,31.77,1.82,9.88,0,19.29-.49,27.88-1.38,6.44-.67,12.41-1.57,17.77-2.65,4.02-.81,7.7-1.74,10.97-2.76,4.47-1.4,8.08-3,10.99-4.85v32.49c0,1.75,1.41,3.16,3.16,3.16s3.16-1.42,3.16-3.16v-37.25c0-.57-.19-1.08-.46-1.55,0-.02.02-.03.02-.05.28-.81.44-1.67.44-2.54,0-.97-.19-1.93-.54-2.81-.6-1.55-1.62-2.84-2.85-3.99-1.86-1.71-4.26-3.13-7.17-4.44-2.91-1.3-6.33-2.47-10.21-3.51-.11-.03-.21,0-.32-.02-4.57-1.22-10.15-2.4-16.9-3.35-9.78-1.39-21.81-2.33-35.95-2.33s-26.17.94-35.95,2.33c-6.42.91-11.75,2.02-16.2,3.18-.12.02-.24,0-.35.02-.41.11-.71.24-1.12.35-1.76.49-3.39.99-4.81,1.49-.04.01-.06.05-.09.07-.73.25-1.6.46-2.28.72-3.71,1.44-6.75,3.01-9.06,4.91-1.16.96-2.14,2.01-2.87,3.24-.73,1.22-1.2,2.66-1.19,4.15,0,.87.23,1.71.51,2.52-.29.48-.51,1.01-.51,1.62v119.39c0,.08.04.15.05.23h-.02c0,.09.06.17.07.26.01.09.03.18.05.27-3.6,1.34-6.61,2.79-8.88,4.53-1.21.93-2.25,1.95-3.03,3.17-.39.61-.71,1.26-.94,1.97-.23.7-.35,1.46-.35,2.21,0,1.11.27,2.21.73,3.18.43.91,1.01,1.72,1.7,2.46h0Z"/>
  </g>
</svg>